<?xml version="1.0" standalone="no"?>
<!DOCTYPE svg PUBLIC "-//W3C//DTD SVG 20010904//EN"
 "http://www.w3.org/TR/2001/REC-SVG-20010904/DTD/svg10.dtd">
<svg version="1.0" xmlns="http://www.w3.org/2000/svg"
 width="160.000000pt" height="160.000000pt" viewBox="0 0 160.000000 160.000000"
 preserveAspectRatio="xMidYMid meet">
<metadata>
Created by potrace 1.11, written by Peter Selinger 2001-2013
</metadata>
<g transform="translate(0.000000,160.000000) scale(0.100000,-0.100000)"
fill="#000000" stroke="none">
<path d="M652 1390 c-224 -59 -395 -231 -452 -456 -83 -324 122 -659 456 -744
205 -53 424 10 579 165 155 155 218 374 165 579 -85 334 -424 541 -748 456z
m292 -10 c225 -57 389 -221 446 -446 83 -322 -116 -650 -446 -734 -202 -52
-424 10 -574 160 -150 150 -212 372 -160 574 84 330 412 529 734 446z"/>
<path d="M390 830 l0 -370 50 0 50 0 1 298 c1 163 4 287 6 275 2 -13 8 -23 13
-23 5 0 15 -18 21 -40 7 -22 16 -40 21 -40 4 0 8 -9 8 -19 0 -11 6 -26 14 -33
7 -8 19 -30 27 -51 7 -20 16 -37 20 -37 4 0 10 -16 13 -35 4 -19 11 -35 16
-35 6 0 15 -20 22 -45 7 -25 16 -45 20 -45 4 0 8 -6 8 -14 0 -8 6 -21 14 -29
8 -8 20 -33 26 -57 14 -52 30 -70 64 -70 22 0 28 6 38 45 7 25 16 45 20 45 4
0 8 6 8 14 0 8 6 21 14 29 8 8 20 33 26 57 6 24 18 49 26 57 8 8 14 21 14 29
0 8 4 14 8 14 4 0 13 20 20 45 7 25 16 45 22 45 5 0 12 16 16 35 3 19 10 35
14 35 5 0 14 17 21 37 6 21 18 44 26 51 7 7 13 22 13 33 0 10 4 19 9 19 5 0
11 8 13 17 2 9 2 -123 0 -295 l-3 -312 45 0 46 0 0 370 0 370 -60 0 c-47 0
-60 -3 -60 -15 0 -8 -4 -15 -10 -15 -5 0 -15 -20 -21 -45 -6 -25 -15 -45 -20
-45 -5 0 -9 -6 -9 -14 0 -8 -6 -21 -13 -28 -7 -7 -19 -34 -26 -60 -8 -27 -17
-48 -22 -48 -5 0 -11 -11 -15 -25 -3 -14 -9 -25 -13 -25 -4 0 -13 -20 -20 -45
-7 -25 -17 -45 -22 -45 -5 0 -9 -6 -9 -14 0 -8 -6 -21 -13 -28 -7 -7 -19 -34
-26 -60 -8 -27 -18 -48 -22 -48 -5 0 -9 -9 -9 -20 0 -34 -27 -22 -34 15 -4 19
-10 35 -14 35 -4 0 -13 20 -20 45 -7 25 -16 45 -22 45 -5 0 -12 16 -16 35 -3
19 -10 35 -15 35 -4 0 -14 18 -20 40 -7 22 -16 40 -21 40 -4 0 -8 9 -8 19 0
11 -6 26 -14 34 -8 8 -20 33 -26 57 -6 24 -18 49 -26 57 -8 8 -14 21 -14 29 0
8 -4 14 -8 14 -5 0 -13 17 -18 38 l-9 37 -67 3 -68 3 0 -371z"/>
</g>
</svg>
